<svg width="152" height="18" viewBox="0 0 152 18" fill="none" xmlns="http://www.w3.org/2000/svg">
<path d="M5.644 1.71C7.272 1.71 8.69467 2.02533 9.912 2.656C11.144 3.272 12.09 4.16667 12.75 5.34C13.4247 6.49867 13.762 7.85533 13.762 9.41C13.762 10.9647 13.4247 12.314 12.75 13.458C12.09 14.602 11.144 15.482 9.912 16.098C8.69467 16.6993 7.272 17 5.644 17H0.65V1.71H5.644ZM5.644 14.954C7.43333 14.954 8.80467 14.47 9.758 13.502C10.7113 12.534 11.188 11.17 11.188 9.41C11.188 7.63533 10.7113 6.24933 9.758 5.252C8.80467 4.25467 7.43333 3.756 5.644 3.756H3.158V14.954H5.644ZM15.4117 10.884C15.4117 9.66667 15.661 8.58867 16.1597 7.65C16.673 6.71133 17.3623 5.98533 18.2277 5.472C19.1077 4.944 20.0757 4.68 21.1317 4.68C22.085 4.68 22.9137 4.87067 23.6177 5.252C24.3363 5.61867 24.9083 6.08067 25.3337 6.638V4.878H27.8637V17H25.3337V15.196C24.9083 15.768 24.329 16.2447 23.5957 16.626C22.8623 17.0073 22.0263 17.198 21.0877 17.198C20.0463 17.198 19.093 16.934 18.2277 16.406C17.3623 15.8633 16.673 15.1153 16.1597 14.162C15.661 13.194 15.4117 12.1013 15.4117 10.884ZM25.3337 10.928C25.3337 10.092 25.1577 9.366 24.8057 8.75C24.4683 8.134 24.021 7.66467 23.4637 7.342C22.9063 7.01933 22.305 6.858 21.6597 6.858C21.0143 6.858 20.413 7.01933 19.8557 7.342C19.2983 7.65 18.8437 8.112 18.4917 8.728C18.1543 9.32933 17.9857 10.048 17.9857 10.884C17.9857 11.72 18.1543 12.4533 18.4917 13.084C18.8437 13.7147 19.2983 14.1987 19.8557 14.536C20.4277 14.8587 21.029 15.02 21.6597 15.02C22.305 15.02 22.9063 14.8587 23.4637 14.536C24.021 14.2133 24.4683 13.744 24.8057 13.128C25.1577 12.4973 25.3337 11.764 25.3337 10.928ZM36.2398 6.924H33.9958V17H31.4658V6.924H30.0358V4.878H31.4658V4.02C31.4658 2.62667 31.8325 1.61467 32.5658 0.983999C33.3138 0.338666 34.4798 0.0159997 36.0638 0.0159997V2.106C35.3011 2.106 34.7658 2.25267 34.4578 2.546C34.1498 2.82467 33.9958 3.316 33.9958 4.02V4.878H36.2398V6.924ZM41.3885 6.924V13.634C41.3885 14.0887 41.4912 14.4187 41.6965 14.624C41.9165 14.8147 42.2832 14.91 42.7965 14.91H44.3365V17H42.3565C41.2272 17 40.3618 16.736 39.7605 16.208C39.1592 15.68 38.8585 14.822 38.8585 13.634V6.924H37.4285V4.878H38.8585V1.864H41.3885V4.878H44.3365V6.924H41.3885ZM45.812 10.884C45.812 9.66667 46.0614 8.58867 46.56 7.65C47.0734 6.71133 47.7627 5.98533 48.628 5.472C49.508 4.944 50.476 4.68 51.532 4.68C52.4854 4.68 53.314 4.87067 54.018 5.252C54.7367 5.61867 55.3087 6.08067 55.734 6.638V4.878H58.264V17H55.734V15.196C55.3087 15.768 54.7294 16.2447 53.996 16.626C53.2627 17.0073 52.4267 17.198 51.488 17.198C50.4467 17.198 49.4934 16.934 48.628 16.406C47.7627 15.8633 47.0734 15.1153 46.56 14.162C46.0614 13.194 45.812 12.1013 45.812 10.884ZM55.734 10.928C55.734 10.092 55.558 9.366 55.206 8.75C54.8687 8.134 54.4214 7.66467 53.864 7.342C53.3067 7.01933 52.7054 6.858 52.06 6.858C51.4147 6.858 50.8134 7.01933 50.256 7.342C49.6987 7.65 49.244 8.112 48.892 8.728C48.5547 9.32933 48.386 10.048 48.386 10.884C48.386 11.72 48.5547 12.4533 48.892 13.084C49.244 13.7147 49.6987 14.1987 50.256 14.536C50.828 14.8587 51.4294 15.02 52.06 15.02C52.7054 15.02 53.3067 14.8587 53.864 14.536C54.4214 14.2133 54.8687 13.744 55.206 13.128C55.558 12.4973 55.734 11.764 55.734 10.928ZM64.0662 6.638C64.4329 6.022 64.9169 5.54533 65.5182 5.208C66.1342 4.856 66.8602 4.68 67.6962 4.68V7.276H67.0582C66.0755 7.276 65.3275 7.52533 64.8142 8.024C64.3155 8.52267 64.0662 9.388 64.0662 10.62V17H61.5582V4.878H64.0662V6.638ZM84.1424 17L78.2244 10.158V17H75.7164V1.71H78.2244V8.684L84.1644 1.71H87.3104L80.6664 9.366L87.4204 17H84.1424ZM94.8963 17.198C93.7523 17.198 92.7183 16.9413 91.7943 16.428C90.8703 15.9 90.1443 15.1667 89.6163 14.228C89.0883 13.2747 88.8243 12.1747 88.8243 10.928C88.8243 9.696 89.0956 8.60333 89.6383 7.65C90.1809 6.69667 90.9216 5.96333 91.8603 5.45C92.7989 4.93667 93.8476 4.68 95.0063 4.68C96.1649 4.68 97.2136 4.93667 98.1523 5.45C99.0909 5.96333 99.8316 6.69667 100.374 7.65C100.917 8.60333 101.188 9.696 101.188 10.928C101.188 12.16 100.91 13.2527 100.352 14.206C99.7949 15.1593 99.0323 15.9 98.0643 16.428C97.1109 16.9413 96.0549 17.198 94.8963 17.198ZM94.8963 15.02C95.5416 15.02 96.1429 14.866 96.7003 14.558C97.2723 14.25 97.7343 13.788 98.0863 13.172C98.4383 12.556 98.6143 11.808 98.6143 10.928C98.6143 10.048 98.4456 9.30733 98.1083 8.706C97.7709 8.09 97.3236 7.628 96.7663 7.32C96.2089 7.012 95.6076 6.858 94.9623 6.858C94.3169 6.858 93.7156 7.012 93.1583 7.32C92.6156 7.628 92.1829 8.09 91.8603 8.706C91.5376 9.30733 91.3763 10.048 91.3763 10.928C91.3763 12.2333 91.7063 13.2453 92.3663 13.964C93.0409 14.668 93.8843 15.02 94.8963 15.02ZM109.784 4.68C110.737 4.68 111.588 4.878 112.336 5.274C113.098 5.67 113.692 6.25667 114.118 7.034C114.543 7.81133 114.756 8.75 114.756 9.85V17H112.27V10.224C112.27 9.13867 111.998 8.31 111.456 7.738C110.913 7.15133 110.172 6.858 109.234 6.858C108.295 6.858 107.547 7.15133 106.99 7.738C106.447 8.31 106.176 9.13867 106.176 10.224V17H103.668V4.878H106.176V6.264C106.586 5.76533 107.107 5.37667 107.738 5.098C108.383 4.81933 109.065 4.68 109.784 4.68ZM120.881 6.924V13.634C120.881 14.0887 120.983 14.4187 121.189 14.624C121.409 14.8147 121.775 14.91 122.289 14.91H123.829V17H121.849C120.719 17 119.854 16.736 119.253 16.208C118.651 15.68 118.351 14.822 118.351 13.634V6.924H116.921V4.878H118.351V1.864H120.881V4.878H123.829V6.924H120.881ZM125.304 10.884C125.304 9.66667 125.554 8.58867 126.052 7.65C126.566 6.71133 127.255 5.98533 128.12 5.472C129 4.944 129.968 4.68 131.024 4.68C131.978 4.68 132.806 4.87067 133.51 5.252C134.229 5.61867 134.801 6.08067 135.226 6.638V4.878H137.756V17H135.226V15.196C134.801 15.768 134.222 16.2447 133.488 16.626C132.755 17.0073 131.919 17.198 130.98 17.198C129.939 17.198 128.986 16.934 128.12 16.406C127.255 15.8633 126.566 15.1153 126.052 14.162C125.554 13.194 125.304 12.1013 125.304 10.884ZM135.226 10.928C135.226 10.092 135.05 9.366 134.698 8.75C134.361 8.134 133.914 7.66467 133.356 7.342C132.799 7.01933 132.198 6.858 131.552 6.858C130.907 6.858 130.306 7.01933 129.748 7.342C129.191 7.65 128.736 8.112 128.384 8.728C128.047 9.32933 127.878 10.048 127.878 10.884C127.878 11.72 128.047 12.4533 128.384 13.084C128.736 13.7147 129.191 14.1987 129.748 14.536C130.32 14.8587 130.922 15.02 131.552 15.02C132.198 15.02 132.799 14.8587 133.356 14.536C133.914 14.2133 134.361 13.744 134.698 13.128C135.05 12.4973 135.226 11.764 135.226 10.928ZM145.846 10.95L151.434 17H148.046L143.558 11.786V17H141.05V0.72H143.558V10.18L147.958 4.878H151.434L145.846 10.95Z" fill="#474444"/>
</svg>
