<?xml version="1.0" standalone="no"?>
<!DOCTYPE svg PUBLIC "-//W3C//DTD SVG 20010904//EN"
 "http://www.w3.org/TR/2001/REC-SVG-20010904/DTD/svg10.dtd">
<svg version="1.0" xmlns="http://www.w3.org/2000/svg"
 width="541.000000pt" height="747.000000pt" viewBox="0 0 541.000000 747.000000"
 preserveAspectRatio="xMidYMid meet">
<metadata>
Created by potrace 1.16, written by Peter Selinger 2001-2019
</metadata>
<g transform="translate(0.000000,747.000000) scale(0.100000,-0.100000)"
fill="#000000" stroke="none">
<path d="M1120 7455 c-215 -36 -605 -181 -752 -278 -107 -71 -246 -247 -330
-415 -46 -92 -50 -182 -13 -282 15 -41 39 -107 53 -147 l27 -72 -27 -24 c-37
-34 -43 -65 -28 -144 9 -46 11 -118 7 -230 -8 -226 15 -344 79 -404 34 -32 40
-18 10 28 -50 77 -60 139 -52 338 5 147 3 196 -10 267 -16 82 -16 88 0 113
l17 26 24 -25 c13 -14 31 -26 40 -26 32 0 73 30 108 79 20 27 56 63 81 81 48
32 53 32 36 -1 -7 -13 -7 -19 0 -19 17 0 12 -16 -24 -67 -18 -26 -36 -58 -40
-70 -4 -11 -25 -49 -47 -83 -44 -69 -43 -94 1 -41 l28 33 7 -46 c14 -90 -18
-184 -92 -274 -43 -52 -38 -64 9 -23 38 33 80 104 99 169 10 34 14 40 22 27 6
-11 -2 -38 -27 -92 -20 -42 -34 -79 -30 -82 8 -8 32 25 60 84 l23 50 0 -35 c0
-23 -10 -50 -29 -79 -34 -50 -40 -109 -16 -165 14 -34 72 -86 96 -86 8 0 -1
-13 -18 -28 -35 -31 -39 -42 -18 -42 8 0 26 14 39 30 41 48 54 31 16 -22 -12
-16 -19 -32 -15 -35 8 -9 35 17 52 49 17 33 54 39 54 8 0 -37 -38 -121 -80
-176 -26 -35 -36 -54 -26 -54 35 0 112 129 123 205 6 49 28 63 78 51 36 -9 33
-50 -10 -132 -38 -73 -38 -97 1 -49 25 32 54 105 54 139 0 17 12 8 55 -38 l54
-59 -126 -121 c-69 -67 -138 -129 -152 -138 -60 -40 -127 -12 -227 95 -38 41
-87 106 -109 145 -41 74 -62 92 -50 45 10 -44 70 -143 120 -203 95 -110 173
-150 250 -129 31 9 69 40 166 136 l127 125 -10 -49 c-22 -113 20 -220 100
-255 39 -18 59 -20 136 -15 50 3 109 2 132 -1 l41 -7 -96 -286 -96 -287 -26
28 c-52 57 -153 59 -226 4 -38 -29 -81 -112 -89 -176 -7 -50 3 -61 26 -33 17
21 54 19 103 -7 26 -13 61 -22 92 -22 l51 -1 -43 -148 c-23 -81 -45 -163 -49
-182 -8 -42 -13 -43 -45 -9 -35 38 -72 54 -123 54 -67 0 -92 -16 -142 -92 -25
-38 -56 -74 -70 -80 -55 -25 -6 -45 76 -30 38 7 66 6 104 -4 60 -16 138 -18
152 -4 6 6 4 -25 -5 -75 l-15 -85 -37 -12 c-29 -8 -60 -8 -127 1 -106 15 -149
8 -200 -29 -48 -34 -72 -84 -72 -145 0 -41 2 -46 18 -40 9 4 55 11 102 15 103
8 127 20 232 113 l81 71 -6 -55 c-4 -29 -7 -74 -7 -99 -1 -35 -7 -52 -30 -77
-29 -32 -30 -32 -64 -18 -41 17 -120 19 -163 5 -29 -11 -108 -92 -131 -137
-19 -34 -14 -104 8 -141 12 -19 37 -41 58 -50 20 -8 46 -29 57 -46 50 -76 183
-51 222 42 9 21 19 32 27 29 18 -7 36 34 37 86 l0 42 18 -50 c10 -28 27 -68
39 -90 l20 -40 -24 -28 c-34 -39 -39 -86 -20 -180 9 -45 16 -98 16 -118 0 -50
23 -68 52 -43 l21 19 -6 -100 c-4 -55 -9 -149 -13 -210 l-6 -110 -52 0 c-35 0
-59 -6 -76 -19 -40 -31 -143 -167 -133 -177 30 -30 160 -26 211 7 17 11 22 11
22 2 -1 -30 -41 -164 -88 -294 -28 -77 -56 -170 -62 -207 -10 -54 -20 -78 -51
-118 -40 -49 -59 -61 -59 -35 0 22 -66 74 -104 81 -37 7 -76 -8 -76 -29 0 -7
-18 -27 -41 -45 -80 -65 -103 -141 -53 -180 29 -23 85 -28 128 -12 21 8 27 6
40 -15 9 -13 23 -24 30 -24 29 0 74 59 86 112 9 37 23 65 48 91 20 20 40 37
44 37 17 0 7 -51 -17 -86 -33 -49 -45 -95 -45 -177 0 -67 20 -137 39 -137 13
0 59 56 83 103 22 43 35 139 24 180 -3 14 -18 40 -32 57 -26 30 -26 35 -21
118 4 60 15 116 37 179 29 86 33 92 52 82 15 -8 18 -16 13 -32 -20 -60 -17
-126 9 -183 14 -31 26 -65 26 -75 0 -10 8 -18 18 -19 48 -2 83 -7 89 -13 15
-15 71 -5 106 18 47 33 97 118 97 167 0 20 8 50 17 66 16 28 16 31 -1 56 -9
15 -46 41 -82 58 -35 17 -67 35 -70 39 -3 5 -29 9 -57 9 -44 0 -59 -5 -95 -35
-24 -18 -50 -31 -58 -28 -18 7 -19 1 16 109 16 51 32 111 36 133 l6 40 47 -47
c44 -46 75 -64 133 -76 15 -3 30 -15 33 -26 3 -11 13 -20 21 -20 9 0 12 5 8
12 -4 6 -6 61 -5 122 2 99 0 116 -21 155 -36 68 -114 100 -170 70 -21 -11 -21
-10 -15 51 4 35 7 76 7 93 l0 29 39 -35 c44 -39 106 -61 146 -51 25 6 32 18
16 28 -5 3 -12 23 -16 43 -16 91 -89 161 -157 151 -22 -4 -28 -1 -23 9 3 8 5
53 5 101 0 93 4 95 43 22 46 -88 95 -52 83 63 -3 31 -3 57 0 57 15 0 73 -36
101 -62 43 -41 63 -33 63 27 0 25 -7 62 -15 81 -15 36 -15 36 8 30 12 -3 28
-1 36 3 36 23 -96 158 -180 186 -61 21 -120 15 -159 -14 l-28 -20 -25 57 c-15
32 -33 84 -42 117 -15 60 -33 285 -22 285 3 0 15 -16 27 -35 19 -30 118 -110
127 -102 7 7 -27 188 -41 215 -17 33 -61 72 -82 72 -10 0 -12 9 -8 33 7 36 58
266 76 340 12 49 28 63 28 25 0 -13 16 -61 35 -108 19 -46 35 -89 35 -94 0 -5
-22 -31 -50 -56 -49 -45 -50 -48 -50 -103 0 -63 38 -157 64 -157 23 0 104 84
111 115 15 69 17 69 73 0 37 -46 52 -71 47 -84 -3 -10 -28 -37 -55 -60 -33
-27 -53 -54 -59 -77 -9 -32 -6 -147 4 -181 7 -21 48 -1 96 48 52 51 79 119 79
197 l0 44 75 -68 76 -67 -25 -26 c-52 -55 -71 -147 -42 -214 17 -41 49 -69 69
-61 29 11 67 103 67 163 l0 56 19 -24 c15 -19 16 -29 7 -61 -16 -60 5 -110 80
-191 35 -39 64 -79 64 -90 0 -25 12 -24 39 5 55 58 45 178 -21 256 -29 34 -81
70 -102 70 -15 0 -32 14 -53 44 l-31 43 64 6 c73 5 119 29 151 77 29 42 29 66
1 81 -63 34 -170 1 -229 -70 l-33 -39 -79 72 -79 71 46 7 c71 10 131 50 166
111 31 54 39 83 18 71 -6 -4 -53 -11 -104 -15 -103 -9 -143 -24 -176 -69 -21
-28 -23 -29 -40 -13 -33 30 -114 145 -157 224 l-41 76 28 -5 c16 -2 32 -13 37
-25 6 -12 25 -32 44 -44 50 -34 103 -30 187 12 46 24 83 35 112 35 24 0 42 5
42 11 0 6 -17 28 -38 49 -69 69 -159 76 -287 21 -38 -17 -84 -31 -102 -31 -31
0 -33 3 -47 53 -27 94 -28 106 -16 157 7 27 15 50 18 50 4 -1 19 -18 34 -40
16 -24 48 -50 80 -67 45 -23 66 -27 135 -28 45 0 85 3 89 8 4 4 -6 22 -23 40
-17 17 -49 74 -72 126 -22 51 -50 105 -63 118 -28 30 -70 53 -96 53 -17 0 -11
24 58 243 42 133 85 276 95 317 l18 75 101 0 c93 0 105 3 155 30 34 19 74 54
111 100 32 38 77 81 100 95 145 87 171 119 178 221 5 66 -15 136 -60 216 -41
73 -35 92 17 56 28 -19 56 -28 96 -31 51 -4 59 -1 91 27 36 31 160 225 179
279 9 25 19 32 76 47 103 28 131 62 176 216 62 213 70 255 59 288 -10 29 -10
30 14 20 47 -17 69 -32 134 -89 69 -61 168 -128 219 -150 26 -10 31 -18 31
-45 0 -27 -6 -37 -35 -54 -22 -13 -43 -37 -55 -63 -43 -95 -12 -208 84 -304
51 -51 75 -66 146 -93 47 -18 100 -41 118 -52 46 -26 55 -24 79 19 77 138 69
366 -17 473 l-31 39 60 0 c56 0 65 -3 138 -54 43 -29 89 -57 102 -61 43 -13
98 -7 148 18 35 18 73 26 143 31 69 5 110 14 152 33 59 26 138 100 138 127 0
26 -60 86 -114 114 l-51 27 -215 -3 c-179 -3 -222 -6 -255 -21 -42 -19 -109
-86 -137 -139 -14 -26 -22 -31 -40 -28 -247 52 -338 90 -468 196 -180 148
-255 190 -335 190 l-35 0 40 40 c32 32 47 40 78 40 20 0 66 9 100 20 81 25
113 25 165 -1 76 -39 94 -57 117 -118 25 -67 77 -134 123 -158 17 -9 55 -16
84 -16 43 0 64 7 124 43 68 40 78 43 170 50 90 6 103 9 149 41 27 19 50 38 50
43 0 21 -79 109 -125 141 -64 44 -115 54 -228 48 -51 -2 -110 0 -132 5 l-40
10 45 1 c112 3 239 48 323 113 61 48 65 64 25 105 -54 56 -72 62 -214 63 -71
1 -170 3 -220 3 -86 2 -93 0 -128 -27 -37 -28 -96 -131 -96 -167 0 -30 -154
-116 -251 -142 l-55 -14 4 58 c8 111 -37 163 -175 204 -170 51 -210 67 -389
157 -165 82 -187 91 -251 95 -59 5 -87 0 -174 -25 -57 -17 -149 -41 -204 -53
-129 -27 -195 -53 -250 -95 -34 -25 -55 -34 -84 -34 l-39 0 53 53 c60 61 122
100 203 128 71 24 102 53 102 93 0 42 -10 55 -51 66 -39 11 -31 12 -129 -5z
m147 -41 c12 -32 -14 -60 -76 -84 -33 -12 -81 -35 -106 -51 -54 -34 -53 -34
-57 -11 -2 11 -11 1 -27 -31 -22 -46 -64 -83 -138 -121 -37 -18 -40 -12 -19
38 9 22 25 37 47 45 72 27 76 32 26 27 -65 -5 -97 -35 -97 -90 0 -37 -4 -43
-35 -61 -53 -28 -165 -151 -210 -230 -38 -65 -44 -71 -135 -120 -120 -65 -152
-97 -202 -202 -23 -47 -53 -100 -68 -117 -14 -17 -34 -42 -43 -55 l-16 -24
-10 25 c-61 160 -72 205 -69 263 2 36 14 82 30 116 26 58 139 233 183 284 25
29 26 29 19 5 -11 -38 -8 -192 4 -220 9 -20 11 -4 11 78 1 112 15 186 39 215
70 80 515 269 757 320 97 21 184 22 192 1z m668 -219 c140 -70 223 -104 315
-131 147 -43 169 -53 204 -94 20 -24 26 -43 26 -76 0 -72 -40 -135 -133 -211
-53 -43 -47 -63 28 -89 94 -33 93 -32 35 -239 -28 -98 -60 -191 -72 -208 -32
-44 -158 -98 -158 -67 0 5 -16 28 -36 50 -42 46 -40 65 10 74 50 10 73 46 60
95 l-10 36 34 -1 c18 -1 41 -9 51 -18 10 -9 24 -16 31 -16 8 0 -8 24 -35 52
-28 29 -43 47 -36 40 8 -6 22 -12 30 -12 10 0 3 12 -19 35 l-34 35 27 0 c15 0
27 5 27 10 0 6 -4 10 -10 10 -5 0 -7 7 -4 15 4 9 -3 16 -19 20 -33 9 -78 55
-54 55 9 0 17 5 17 10 0 6 -4 10 -10 10 -5 0 -10 16 -10 35 0 26 4 35 17 35
21 0 6 16 -22 23 -15 4 -14 5 7 6 34 1 48 21 15 21 -44 0 -125 30 -174 65 -26
19 -70 48 -96 64 l-48 28 93 6 c93 5 228 39 228 57 0 12 5 13 -55 -5 -32 -10
-51 -12 -53 -5 -5 15 -32 12 -38 -5 -10 -25 -21 -17 -28 20 -9 47 -31 47 -23
0 6 -36 -9 -58 -24 -34 -5 8 -9 32 -9 54 0 29 -3 36 -11 28 -6 -6 -10 -30 -7
-52 l4 -41 -48 0 c-45 0 -48 2 -48 25 0 14 -4 25 -10 25 -5 0 -10 -9 -10 -20
0 -11 -4 -20 -9 -20 -12 0 -23 64 -15 94 4 16 2 26 -5 26 -15 0 -24 -45 -18
-88 6 -34 5 -35 -8 -18 -16 21 -19 46 -15 111 1 33 0 38 -12 27 -8 -8 -13 -35
-12 -73 2 -85 -18 -60 -26 33 -4 49 -9 67 -14 55 -5 -10 -6 -45 -4 -78 l4 -59
-20 32 c-13 20 -22 54 -24 95 -3 35 -9 63 -14 63 -6 0 -9 -27 -6 -70 4 -73 -7
-75 -18 -2 -3 23 -10 42 -15 42 -12 0 -11 -52 1 -87 10 -27 9 -27 -6 -8 -8 11
-20 39 -27 63 -6 23 -15 42 -20 42 -10 0 -4 -50 9 -85 7 -18 6 -18 -9 -7 -14
12 -17 11 -23 -12 -3 -13 -3 -29 0 -34 3 -6 -14 -4 -39 4 -25 7 -72 18 -103
24 -33 6 -105 34 -168 65 -60 30 -124 58 -141 61 -18 3 -33 10 -33 14 0 22
134 72 260 99 74 15 167 37 205 49 106 31 106 31 165 26 45 -3 91 -22 245 -99z
m1152 -63 c9 -6 4 -13 -16 -25 -16 -10 -39 -33 -51 -52 -20 -33 -25 -35 -74
-35 -39 0 -61 -6 -80 -21 -34 -26 -33 -14 2 42 35 54 61 78 98 89 37 11 105
12 121 2z m-1827 -142 c119 -59 201 -106 216 -123 37 -43 49 -99 36 -155 -13
-59 -101 -242 -119 -249 -19 -7 -41 14 -46 45 -4 24 -5 25 -11 7 -5 -13 -36
-31 -94 -54 -61 -23 -101 -47 -134 -77 -49 -46 -52 -47 -132 -48 -51 -1 -56
-5 -72 -60 -6 -20 -29 -43 -69 -70 -32 -23 -79 -67 -103 -98 -73 -97 -107 -79
-192 104 -17 36 -39 102 -48 146 -16 79 -16 82 7 174 56 220 124 352 234 456
31 28 58 52 61 52 14 0 -39 -89 -56 -93 -11 -3 -32 -35 -54 -81 -19 -42 -38
-76 -43 -76 -11 0 -21 -63 -14 -89 9 -34 20 -24 33 27 13 53 70 195 76 189 2
-2 -7 -32 -21 -66 -45 -109 -68 -226 -68 -341 0 -58 5 -116 11 -130 8 -19 10
4 10 95 0 166 28 284 116 482 20 45 36 86 36 93 0 25 64 40 156 37 l91 -3 193
-94z m289 -83 c63 -23 134 -84 163 -141 26 -50 34 -141 19 -202 -7 -25 -10
-49 -7 -52 13 -12 36 73 36 131 0 70 -12 117 -43 161 -14 20 -16 27 -6 24 24
-7 79 -109 79 -145 0 -18 5 -33 10 -33 13 0 13 61 0 96 -9 23 -8 25 4 15 7 -6
24 -43 36 -81 28 -87 25 -189 -8 -264 -23 -52 -22 -73 3 -40 32 43 47 113 43
202 -3 48 -8 96 -13 107 -6 15 -3 14 12 -5 28 -35 63 -106 63 -127 0 -16 -35
-121 -54 -165 -5 -12 -4 -18 3 -18 7 0 24 26 39 58 l27 57 3 -36 c2 -25 -5
-51 -23 -84 -29 -52 -25 -74 7 -35 l21 25 -8 -25 c-14 -47 -57 -92 -114 -118
-36 -17 -50 -28 -38 -30 28 -6 84 17 117 48 16 15 30 27 30 25 0 -19 -38 -84
-63 -106 -26 -24 -28 -29 -13 -29 11 0 28 8 38 17 15 14 18 14 13 2 -6 -17
-66 -49 -90 -49 -8 0 -15 -4 -15 -10 0 -13 46 -13 71 0 22 13 22 13 7 -31 -20
-59 -66 -119 -92 -119 -29 0 -39 21 -30 64 8 47 -22 80 -72 79 -80 -3 -84 1
-84 66 0 69 -14 86 -81 95 -54 8 -66 19 -124 118 l-43 73 34 14 c29 11 41 27
75 98 57 119 69 158 69 217 0 64 -27 124 -71 160 -31 25 -32 27 -9 20 14 -3
49 -16 79 -27z m244 -42 c135 -54 260 -152 301 -238 17 -35 28 -83 35 -149 6
-53 20 -118 31 -144 28 -64 24 -86 -20 -97 -48 -12 -60 -24 -60 -60 0 -21 10
-41 29 -62 16 -16 32 -40 35 -51 8 -25 -32 -106 -117 -236 -46 -71 -62 -89
-89 -96 -40 -11 -88 1 -138 34 -32 22 -38 31 -43 74 -3 27 -15 67 -26 89 -24
47 -28 111 -7 111 15 0 26 -30 26 -72 0 -33 9 -58 22 -58 16 0 56 -47 72 -85
14 -32 18 -35 30 -22 10 10 15 36 15 81 0 36 3 76 7 88 7 22 8 21 35 -12 32
-38 45 -36 29 4 -13 34 -13 102 0 71 4 -12 15 -26 23 -34 14 -11 16 -7 14 31
-1 28 -6 42 -14 41 -10 -2 -13 16 -12 65 0 60 2 64 11 37 6 -16 16 -37 24 -45
7 -8 15 -26 19 -40 8 -32 33 -66 41 -57 4 4 0 24 -9 44 -31 71 -59 218 -66
350 -7 125 -9 136 -44 206 -43 87 -129 174 -229 231 -63 37 -63 37 -23 30 22
-3 66 -17 98 -29z m1290 -26 c31 -7 57 -15 57 -20 0 -4 -15 -23 -33 -42 -48
-51 -91 -57 -157 -21 l-52 28 28 23 c24 19 65 38 95 42 3 1 31 -4 62 -10z
m323 -24 l39 -17 -31 -12 c-16 -6 -44 -21 -61 -33 -38 -28 -63 -31 -40 -5 19
21 33 72 19 72 -5 0 -15 -13 -22 -29 -16 -40 -42 -61 -84 -71 l-36 -8 30 34
c16 19 30 44 30 54 0 28 -4 25 -33 -19 -35 -53 -85 -83 -126 -75 l-31 7 32 17
c19 10 41 34 52 56 l19 39 102 3 c79 3 110 0 141 -13z m-381 -167 c10 -28 45
-68 77 -84 48 -25 44 -10 -11 43 -28 27 -51 55 -51 62 0 20 42 2 64 -26 11
-14 37 -38 58 -53 l38 -28 -34 -16 c-57 -27 -116 -17 -165 27 -23 22 -81 105
-81 117 0 14 100 -26 105 -42z m-537 4 c60 -23 113 -59 222 -152 47 -39 104
-83 128 -97 24 -14 41 -28 38 -31 -9 -8 -138 74 -201 128 -106 92 -126 102
-220 111 -47 5 -95 14 -106 20 -20 10 -20 11 -2 24 25 20 84 18 141 -3z m1437
-216 c28 -14 63 -39 79 -55 l28 -29 -33 -31 c-36 -33 -117 -76 -159 -84 -20
-5 -29 1 -48 31 -14 21 -17 30 -8 22 9 -7 26 -14 39 -15 12 -2 31 -7 41 -11
15 -6 18 -4 13 8 -4 12 3 17 32 22 21 3 47 17 61 31 28 30 16 32 -25 5 -16
-11 -46 -20 -65 -20 -29 1 -32 2 -17 11 21 12 47 61 46 86 0 17 -1 17 -12 -1
-35 -56 -70 -86 -100 -86 -24 0 -28 3 -19 12 7 7 12 18 12 26 0 12 -4 11 -25
-2 -13 -9 -32 -16 -41 -16 -16 0 -15 3 3 23 28 30 43 61 43 88 0 20 3 21 52
16 28 -4 75 -18 103 -31z m-2556 -63 c51 -105 83 -149 121 -166 l28 -12 -27
-84 c-22 -66 -36 -92 -65 -119 -42 -38 -60 -39 -166 -8 -30 9 -81 21 -113 27
-96 18 -161 92 -173 196 -3 27 -7 59 -9 73 -3 24 -1 25 36 22 52 -5 92 12 131
56 20 24 57 47 107 68 42 17 79 32 82 33 4 0 25 -38 48 -86z m2381 72 c0 -8
-16 -33 -36 -55 -29 -32 -43 -40 -70 -40 -24 0 -34 5 -34 15 0 22 -9 19 -32
-10 -32 -40 -39 -29 -12 20 14 24 24 53 22 62 -2 12 -14 0 -36 -39 -17 -32
-44 -65 -58 -75 -28 -18 -136 -34 -178 -26 l-24 5 34 49 c36 49 82 84 132 99
15 5 87 9 160 9 111 1 132 -1 132 -14z m-3345 -25 c-24 -27 -111 -52 -152 -44
-50 9 -41 -13 10 -24 l42 -10 -47 -1 c-51 -1 -64 -17 -23 -27 31 -8 31 -10 -3
-59 -33 -48 -53 -54 -82 -25 -29 29 -21 69 25 125 34 42 36 43 107 47 40 2 86
11 103 20 40 21 41 21 20 -2z m74 -146 c22 -73 11 -132 -35 -189 -49 -62 -57
-75 -47 -75 22 0 63 43 88 93 26 49 27 46 8 -30 -6 -25 -4 -27 10 -14 9 7 19
29 23 48 6 30 8 33 17 18 18 -33 2 -113 -32 -162 -35 -49 -34 -68 0 -37 31 27
59 88 59 126 1 28 2 30 11 15 21 -35 -22 -151 -84 -230 -34 -44 -29 -61 9 -26
35 33 75 103 90 158 l13 46 0 -40 c1 -36 -7 -58 -67 -177 -2 -5 1 -8 7 -8 6 0
24 20 40 46 33 51 44 47 31 -12 -14 -59 -12 -73 5 -50 8 11 15 14 15 8 0 -7 5
-12 10 -12 6 0 10 7 10 16 0 12 6 9 21 -10 18 -23 19 -31 10 -58 -6 -17 -11
-35 -11 -40 0 -18 22 5 36 36 l13 31 1 -32 c0 -18 5 -33 10 -33 6 0 10 9 10
21 0 11 5 17 10 14 6 -3 10 -17 10 -30 0 -13 5 -27 10 -30 6 -3 10 3 10 15 0
13 5 20 13 17 13 -4 14 -35 3 -82 l-7 -30 20 24 c12 13 21 34 21 47 0 17 4 22
15 18 11 -5 13 -16 8 -47 -7 -48 12 -44 26 6 6 25 10 28 15 15 19 -53 19 -54
23 -30 5 26 7 26 36 10 12 -6 51 -17 87 -23 l65 -11 -40 -21 c-98 -51 -235
-68 -312 -39 -65 25 -135 36 -213 33 -87 -2 -137 17 -173 67 -32 45 -29 99 11
160 18 28 32 61 32 74 0 14 -16 59 -35 102 -55 122 -50 176 36 383 l24 58 8
-33 c4 -18 16 -60 26 -94z m486 -161 c10 -25 36 -60 66 -87 46 -41 49 -47 49
-93 0 -26 -7 -61 -15 -76 -15 -28 -14 -30 38 -84 83 -87 90 -111 36 -138 -37
-20 -58 -19 -132 6 -130 43 -241 105 -295 164 -86 94 -103 202 -34 216 40 8
56 21 94 76 16 24 48 55 70 69 56 36 88 72 89 103 1 14 5 -5 10 -43 4 -39 15
-89 24 -113z m2105 158 c80 -17 147 -114 166 -238 l7 -43 -67 0 c-78 0 -94 7
-134 58 l-30 38 69 -4 c71 -4 119 2 119 17 0 4 -35 6 -77 4 -102 -5 -137 12
-176 84 -16 29 -25 58 -21 64 9 16 66 39 84 34 8 -2 35 -9 60 -14z m443 5 c18
-7 45 -28 62 -45 25 -27 27 -34 15 -42 -49 -31 -105 -22 -184 30 -65 44 -68
38 29 60 22 5 41 9 43 10 1 1 17 -5 35 -13z m-601 -99 l21 -47 -37 -48 c-21
-26 -40 -59 -43 -74 -3 -16 -9 -28 -14 -28 -15 0 -41 110 -34 146 6 36 61 107
77 102 5 -2 19 -25 30 -51z m-1334 11 c7 -7 12 -38 12 -70 0 -64 13 -78 70
-78 28 0 30 -2 24 -27 -27 -110 -136 -202 -241 -203 l-43 0 0 43 c0 23 -4 48
-9 56 -7 11 -1 19 22 30 62 32 87 80 121 234 7 29 24 35 44 15z m1417 -140
l48 -61 -17 -46 c-18 -51 -22 -116 -6 -106 6 3 10 15 10 25 0 11 7 38 16 60
l16 41 25 -33 c29 -40 69 -122 77 -161 l7 -28 -28 20 c-15 11 -63 34 -106 52
-85 35 -161 95 -171 133 -8 31 5 65 46 121 18 24 33 44 34 45 0 0 22 -28 49
-62z m-1275 -156 c15 -55 12 -134 -5 -160 -21 -29 -59 -38 -150 -34 -65 3 -75
6 -75 22 0 10 -12 28 -26 39 l-27 21 30 0 c38 0 111 25 134 46 24 21 34 13 49
-41 7 -25 17 -45 21 -45 15 0 10 44 -9 82 -19 36 -19 36 7 76 14 22 29 38 33
35 4 -2 12 -20 18 -41z m-282 -131 c7 -9 19 -28 27 -43 13 -24 13 -28 1 -28
-25 0 -72 -65 -106 -146 -46 -112 -66 -148 -102 -190 -62 -70 -149 -90 -245
-58 -81 27 -273 164 -273 195 0 3 23 0 52 -7 29 -8 65 -14 79 -14 19 0 34 -9
49 -31 28 -39 117 -109 138 -109 9 0 -19 32 -63 72 l-78 73 34 7 c19 3 35 4
37 0 11 -30 46 -74 67 -84 40 -18 38 -4 -5 39 -22 23 -40 45 -40 49 0 5 21 17
46 28 62 25 100 60 128 114 l23 45 26 -34 c14 -19 31 -55 38 -81 15 -54 34
-53 24 1 -10 52 -45 111 -77 127 -45 24 -34 39 37 51 36 6 77 20 92 31 31 23
69 20 91 -7z m280 -93 c-3 -7 -11 -13 -19 -14 -34 -2 -39 -5 -39 -20 0 -11 6
-14 20 -9 30 9 25 -7 -23 -71 -104 -141 -268 -255 -402 -278 l-40 -7 34 25
c19 14 43 39 55 55 23 34 36 39 36 16 0 -8 5 -15 11 -15 6 0 9 10 7 23 -2 12
-9 21 -15 20 -7 -2 -3 17 10 46 24 54 35 47 36 -22 1 -49 21 -39 21 10 0 20
-5 51 -11 68 -11 28 -9 38 17 85 42 76 72 93 159 86 39 -3 84 -2 100 3 42 13
47 13 43 -1z m24 -243 l12 -40 4 32 c2 18 -2 42 -8 55 l-11 23 17 -22 c19 -26
39 -31 30 -8 -4 10 1 15 14 15 26 0 26 -31 1 -86 -20 -43 -43 -63 -128 -109
-33 -17 -82 -60 -130 -113 -118 -130 -115 -129 -459 -120 -201 6 -215 10 -256
77 -20 31 -23 49 -23 128 1 109 11 127 49 86 38 -41 56 -85 56 -137 0 -25 4
-46 9 -46 17 0 22 68 7 110 -18 53 -5 41 28 -26 15 -30 26 -69 26 -92 0 -23 5
-44 10 -47 18 -11 11 98 -8 136 l-18 36 42 -13 c23 -7 90 -16 149 -20 l107 -7
28 -39 c16 -22 32 -52 35 -68 4 -17 11 -32 16 -35 12 -8 12 42 -1 65 -8 16 -8
18 5 14 17 -7 18 -3 9 20 -3 9 -14 16 -24 16 -9 0 -25 8 -34 19 -16 17 -16 19
6 24 28 8 87 -46 113 -104 20 -44 38 -44 25 0 -7 24 -5 29 6 24 23 -9 11 63
-15 91 l-21 23 69 46 70 46 25 -30 c14 -17 26 -37 26 -45 0 -29 16 -12 27 29
14 51 -1 76 -35 58 -42 -23 -30 6 30 66 l63 64 23 -28 c12 -15 28 -46 34 -68z
m-810 -1043 c35 -22 36 -24 26 -55 -6 -18 -18 -38 -26 -44 -23 -19 -81 -15
-131 7 -24 11 -58 20 -77 20 -36 0 -41 9 -24 41 32 59 160 76 232 31z m152
-62 c22 -20 45 -57 66 -108 18 -42 43 -94 57 -116 l25 -39 -49 7 c-137 20
-232 118 -207 214 9 31 16 27 38 -21 23 -48 128 -157 153 -157 12 0 -3 21 -44
63 -56 56 -123 154 -123 177 0 21 51 8 84 -20z m250 -404 l38 -21 -36 -6 c-19
-3 -65 -21 -101 -39 -60 -30 -68 -32 -103 -22 -22 7 -46 20 -55 29 -15 17 -12
18 45 15 59 -4 138 19 138 40 0 12 -13 10 -53 -7 -20 -8 -58 -15 -84 -14 l-48
0 45 20 c93 42 145 43 214 5z m-347 -241 c-4 -25 -10 -57 -13 -72 -6 -26 -5
-27 10 -12 10 9 20 39 23 75 5 46 8 54 14 34 21 -73 5 -132 -48 -182 l-29 -28
-18 51 c-23 63 -16 112 20 151 39 39 48 36 41 -17z m-430 -146 c-49 -11 -87
-32 -111 -58 -31 -34 -12 -35 35 -2 40 28 118 51 171 51 16 0 11 -7 -21 -34
-74 -62 -108 -78 -179 -84 -37 -2 -75 -9 -84 -14 -23 -12 -23 5 1 58 17 38 54
73 91 87 8 3 42 5 75 5 57 0 58 0 22 -9z m1040 -391 c23 -24 49 -60 58 -80 17
-42 20 -115 5 -138 -7 -10 -10 -11 -10 -2 0 7 -25 40 -56 73 -59 64 -84 111
-84 156 0 26 1 26 15 7 14 -19 14 -18 15 4 0 31 10 28 57 -20z m-953 -5 c3
-21 17 -51 30 -68 l24 -30 -19 -37 c-16 -32 -55 -66 -64 -56 -10 12 -43 120
-45 148 -6 73 -3 80 34 80 31 0 34 -3 40 -37z m437 -180 c26 -14 66 -45 90
-70 28 -29 35 -40 19 -30 -39 24 -129 47 -184 47 -40 1 -57 6 -80 26 -32 28
-32 28 14 48 42 18 78 13 141 -21z m-161 -105 c0 -8 -11 -47 -25 -86 -14 -39
-25 -86 -25 -104 0 -18 -4 -39 -9 -46 -5 -9 -11 16 -15 65 -4 43 -9 106 -13
140 -4 49 -2 69 11 88 l17 25 29 -34 c17 -18 30 -40 30 -48z m174 6 c25 -6 86
-105 86 -139 0 -17 -1 -17 -21 1 -11 10 -57 37 -102 59 -45 22 -80 43 -77 46
3 4 -4 17 -15 29 l-20 23 63 -6 c34 -4 73 -9 86 -13z m-63 -730 c34 -32 49
-85 49 -168 0 -65 -1 -67 -22 -60 -13 3 -35 13 -49 20 -30 15 -119 110 -119
127 0 6 7 1 16 -11 8 -12 30 -29 47 -38 18 -9 42 -28 54 -42 12 -14 25 -23 29
-19 11 11 -24 56 -65 82 -47 29 -52 37 -61 86 -6 32 -4 39 14 48 30 15 76 5
107 -25z m-296 -932 c0 -45 -7 -72 -34 -127 -32 -64 -35 -67 -43 -44 -15 38
-3 149 22 207 21 49 24 52 39 37 11 -11 16 -34 16 -73z"/>
<path d="M4642 7077 c-28 -30 -63 -128 -69 -194 -5 -49 -3 -54 36 -96 42 -45
57 -95 25 -83 -15 6 -143 28 -243 42 -33 5 -33 6 -12 20 34 24 81 114 81 156
0 27 6 40 20 48 11 6 20 17 20 26 0 11 -5 12 -17 6 -10 -5 -57 -12 -105 -15
-100 -5 -166 -31 -199 -78 -28 -40 -35 -91 -16 -128 15 -31 15 -31 -12 -31
-16 0 -57 -3 -92 -6 l-64 -7 22 24 c46 50 63 121 43 174 -9 23 -13 25 -25 15
-8 -7 -42 -25 -75 -41 -70 -33 -100 -73 -100 -136 0 -49 6 -46 -139 -62 -90
-10 -110 -15 -99 -26 3 -3 103 2 224 10 120 8 243 16 272 18 l52 4 0 -37 c0
-22 9 -50 23 -70 20 -30 168 -129 193 -130 27 0 32 101 9 157 -9 21 -23 45
-32 55 -15 17 -14 18 18 18 49 0 146 -17 289 -50 69 -16 160 -32 202 -35 64
-6 87 -13 134 -43 l56 -35 -30 -19 c-30 -19 -62 -80 -62 -119 0 -31 18 -59 38
-59 10 0 31 -14 48 -31 37 -39 95 -69 133 -69 60 0 91 86 56 154 -14 27 -14
30 5 48 26 24 25 40 -2 66 -29 27 -70 42 -113 42 -23 0 -50 11 -79 33 -25 17
-45 35 -45 38 -2 19 48 16 89 -4 89 -44 318 -20 308 32 -4 22 -92 68 -154 81
-69 15 -145 -2 -183 -41 -53 -53 -156 -60 -324 -22 -60 13 -68 17 -65 36 2 16
9 21 23 18 61 -11 122 -5 160 16 22 12 56 30 76 40 l35 17 3 83 c2 100 -10
124 -91 168 -38 21 -69 29 -111 31 -33 1 -61 5 -65 8 -13 13 -50 4 -70 -17z
m-208 -144 c-12 -50 -44 -103 -86 -143 -22 -22 -45 -40 -51 -40 -6 0 -1 7 12
16 12 9 32 37 42 63 11 25 30 54 42 63 12 9 19 20 15 24 -14 13 -59 -28 -77
-69 -23 -52 -46 -73 -89 -79 -28 -4 -35 -1 -48 23 -11 21 -11 34 -3 56 26 71
98 108 212 112 36 1 37 0 31 -26z m884 -249 c23 -9 42 -20 42 -25 0 -4 -23
-13 -51 -19 -80 -19 -224 5 -213 35 15 37 140 42 222 9z"/>
<path d="M854 292 c-15 -10 -34 -47 -34 -67 0 -25 46 -65 75 -65 56 0 89 86
47 123 -19 17 -68 22 -88 9z"/>
</g>
</svg>
